<svg width="1600" height="1200" viewBox="0 0 1600 1200" fill="none" xmlns="http://www.w3.org/2000/svg">
<g clip-path="url(#clip0_1_54)">
<rect width="1600" height="1200" fill="white"/>
<path d="M359.161 226.833C357.293 228.154 354.165 231.698 356.407 233.896C358.258 235.712 361.42 233.992 362.75 232.359C363.792 231.081 364.783 228.562 363.288 227.259C362.463 226.537 360.447 226.494 359.161 226.833Z" fill="#02546A"/>
<path d="M368.449 216.859C363.445 220.291 369.648 224.557 371.551 220.378C372.159 219.04 372.385 217.71 371.03 216.894C370.135 216.355 368.849 216.32 368.11 217.024" fill="#02546A"/>
<path d="M375.157 228.214C370.03 233.036 378.771 237.667 379.979 232.011C380.656 228.831 377.806 227.876 375.157 228.214Z" fill="#02546A"/>
<path d="M384.105 219.778C384.114 221.785 384.635 223.766 386.99 223.896C387.676 222.671 388.285 220.629 387.164 219.43C386.46 218.675 384.418 218.24 384.105 219.439" fill="#02546A"/>
<path d="M358.475 212.732C355.808 213.444 354.339 218.275 358.266 216.911C360.751 216.042 361.794 212.61 358.475 212.732Z" fill="#02546A"/>
<path d="M368.241 239.04C366.303 239.066 365.304 240.187 365.061 242.168C364.87 243.714 365.226 244.392 366.824 244.322C369.24 244.218 371.082 238.666 368.241 239.04Z" fill="#02546A"/>
<path d="M381.768 209.118C381.186 209.787 379.483 211.394 380.465 212.315C381.177 212.984 382.038 212.297 382.559 211.846C383.106 211.368 384.175 210.247 383.758 209.387C383.48 208.813 382.237 208.614 381.881 209.23" fill="#02546A"/>
<path d="M368.023 200.316C366.929 201.298 365.582 204.061 367.224 205.164C368.519 206.042 369.474 204.817 369.831 203.679C370.317 202.132 369.752 200.325 368.023 200.316Z" fill="#02546A"/>
<path d="M379.466 196.684C378.771 197.553 377.676 199.604 378.562 200.655C379.231 201.454 380.578 201.367 381.238 200.568C382.203 199.387 381.429 196.58 379.466 196.684Z" fill="#02546A"/>
<g opacity="0.3">
<path d="M84.7488 69.2874C81.7688 68.3143 75.3046 67.793 74.7312 72.059C74.2534 75.5864 78.7365 77.6456 81.6297 77.7672C83.8887 77.8628 87.4683 76.8897 87.6768 74.1702C87.7811 72.6759 86.1737 70.4169 84.7488 69.2874Z" fill="#02546A"/>
<path d="M103.333 71.3117C95.4615 68.627 95.8611 78.9487 102.004 77.6107C103.976 77.185 105.618 76.3335 105.401 74.1788C105.262 72.7539 104.245 71.3204 102.855 71.0771" fill="#02546A"/>
<path d="M96.3652 88.0021C86.8601 86.3252 88.9453 99.7313 96.1479 96.4124C100.188 94.5444 98.9021 90.6346 96.3652 88.0021Z" fill="#02546A"/>
<path d="M112.969 90.9126C110.77 92.5721 109.024 94.7702 110.814 97.4636C112.725 97.2116 115.471 96.2038 115.87 93.9883C116.122 92.5894 114.923 89.9916 113.351 90.6259" fill="#02546A"/>
<path d="M99.6841 56.95C96.7214 54.6041 90.1965 56.9587 94.9143 60.1473C97.9117 62.1803 102.543 60.5035 99.6841 56.95Z" fill="#02546A"/>
<path d="M78.78 89.2793C77.1639 87.1767 75.1048 86.9942 72.7329 88.3496C70.8736 89.4096 70.4218 90.3566 71.8119 92.0595C73.9145 94.6226 81.5255 92.0943 78.78 89.2793Z" fill="#02546A"/>
<path d="M122.778 79.5917C121.561 79.5048 118.399 78.9488 118.199 80.782C118.051 82.12 119.502 82.4936 120.432 82.6934C121.414 82.902 123.516 83.1539 124.116 81.9897C124.515 81.2164 123.716 79.6786 122.743 79.7915" fill="#02546A"/>
<path d="M121.162 57.254C119.189 56.863 115.045 57.645 115.175 60.3557C115.28 62.5017 117.4 62.5365 118.955 61.9978C121.049 61.268 122.569 59.1741 121.162 57.254Z" fill="#02546A"/>
<path d="M134.542 66.8547C133.012 66.8025 129.859 67.2804 129.433 69.1136C129.111 70.5038 130.31 71.9113 131.727 71.9808C133.812 72.0763 136.271 68.9225 134.542 66.8547Z" fill="#02546A"/>
</g>
<g opacity="0.3">
<path d="M1548.75 380.287C1545.77 379.314 1539.3 378.793 1538.73 383.059C1538.25 386.586 1542.74 388.646 1545.63 388.767C1547.89 388.863 1551.47 387.89 1551.68 385.17C1551.78 383.676 1550.17 381.417 1548.75 380.287Z" fill="#02546A"/>
<path d="M1567.33 382.312C1559.46 379.627 1559.86 389.949 1566 388.611C1567.98 388.185 1569.62 387.334 1569.4 385.179C1569.26 383.754 1568.25 382.32 1566.86 382.077" fill="#02546A"/>
<path d="M1560.37 399.002C1550.86 397.325 1552.95 410.731 1560.15 407.412C1564.19 405.544 1562.9 401.635 1560.37 399.002Z" fill="#02546A"/>
<path d="M1576.97 401.913C1574.77 403.572 1573.02 405.77 1574.81 408.464C1576.73 408.212 1579.47 407.204 1579.87 404.988C1580.12 403.589 1578.92 400.992 1577.35 401.626" fill="#02546A"/>
<path d="M1563.68 367.95C1560.72 365.604 1554.2 367.959 1558.91 371.147C1561.91 373.18 1566.54 371.503 1563.68 367.95Z" fill="#02546A"/>
<path d="M1542.78 400.279C1541.16 398.177 1539.1 397.994 1536.73 399.35C1534.87 400.41 1534.42 401.357 1535.81 403.06C1537.91 405.623 1545.53 403.094 1542.78 400.279Z" fill="#02546A"/>
<path d="M1586.78 390.592C1585.56 390.505 1582.4 389.949 1582.2 391.782C1582.05 393.12 1583.5 393.494 1584.43 393.693C1585.41 393.902 1587.52 394.154 1588.12 392.99C1588.52 392.216 1587.72 390.679 1586.74 390.792" fill="#02546A"/>
<path d="M1585.16 368.254C1583.19 367.863 1579.05 368.645 1579.18 371.356C1579.28 373.502 1581.4 373.536 1582.95 372.998C1585.05 372.268 1586.57 370.174 1585.16 368.254Z" fill="#02546A"/>
<path d="M1598.54 377.855C1597.01 377.803 1593.86 378.28 1593.43 380.114C1593.11 381.504 1594.31 382.911 1595.73 382.981C1597.81 383.076 1600.27 379.922 1598.54 377.855Z" fill="#02546A"/>
</g>
<path d="M604.667 226.025C603.746 223.931 600.887 220.169 598.289 221.933C596.143 223.392 597.203 226.824 598.541 228.458C599.584 229.735 601.86 231.203 603.433 229.996C604.302 229.327 604.745 227.354 604.667 226.025Z" fill="#FFA188"/>
<path d="M612.608 237.111C610.236 231.533 604.832 236.764 608.542 239.457C609.732 240.317 610.992 240.795 612.06 239.631C612.764 238.858 613.051 237.607 612.503 236.746" fill="#FFA188"/>
<path d="M600.149 241.438C596.439 235.461 590.166 243.115 595.474 245.409C598.454 246.703 599.958 244.097 600.149 241.438Z" fill="#FFA188"/>
<path d="M606.647 251.873C604.675 251.482 602.633 251.603 602.043 253.888C603.111 254.801 604.988 255.8 606.387 254.948C607.273 254.41 608.098 252.489 606.986 251.942" fill="#FFA188"/>
<path d="M618.629 228.145C618.464 225.391 614.015 223.001 614.571 227.111C614.928 229.726 618.09 231.42 618.629 228.145Z" fill="#FFA188"/>
<path d="M590.913 232.515C591.269 230.612 590.366 229.413 588.48 228.779C587.003 228.284 586.273 228.501 586.021 230.082C585.639 232.463 590.713 235.374 590.913 232.515Z" fill="#FFA188"/>
<path d="M617.56 251.699C617.013 250.995 615.779 249.006 614.684 249.796C613.885 250.37 614.389 251.334 614.728 251.942C615.093 252.577 615.979 253.845 616.9 253.602C617.517 253.445 617.96 252.264 617.421 251.786" fill="#FFA188"/>
<path d="M628.907 239.961C628.16 238.701 625.718 236.825 624.311 238.215C623.199 239.309 624.207 240.482 625.258 241.064C626.674 241.846 628.559 241.655 628.907 239.961Z" fill="#FFA188"/>
<path d="M630.201 251.89C629.489 251.039 627.691 249.553 626.492 250.213C625.579 250.717 625.397 252.055 626.049 252.855C627.013 254.036 629.915 253.836 630.201 251.89Z" fill="#FFA188"/>
<path d="M359.161 777.151C357.293 778.472 354.165 782.017 356.407 784.215C358.258 786.031 361.42 784.31 362.75 782.677C363.792 781.4 364.783 778.88 363.288 777.577C362.463 776.847 360.447 776.804 359.161 777.151Z" fill="#02546A"/>
<path d="M368.449 767.168C363.445 770.6 369.648 774.866 371.551 770.687C372.159 769.349 372.385 768.02 371.03 767.203C370.135 766.665 368.849 766.63 368.11 767.334" fill="#02546A"/>
<path d="M375.157 778.524C370.03 783.346 378.771 787.977 379.979 782.321C380.656 779.141 377.806 778.185 375.157 778.524Z" fill="#02546A"/>
<path d="M384.105 770.096C384.114 772.103 384.635 774.084 386.99 774.215C387.676 772.99 388.285 770.948 387.164 769.749C386.46 768.993 384.418 768.559 384.105 769.758" fill="#02546A"/>
<path d="M358.475 763.042C355.808 763.754 354.339 768.585 358.266 767.221C360.751 766.352 361.794 762.92 358.475 763.042Z" fill="#02546A"/>
<path d="M368.241 789.35C366.303 789.376 365.304 790.496 365.061 792.477C364.87 794.024 365.226 794.702 366.824 794.632C369.24 794.528 371.082 788.976 368.241 789.35Z" fill="#02546A"/>
<path d="M381.768 759.427C381.186 760.096 379.483 761.704 380.465 762.624C381.177 763.293 382.038 762.607 382.559 762.155C383.106 761.677 384.175 760.557 383.758 759.696C383.48 759.123 382.237 758.923 381.881 759.54" fill="#02546A"/>
<path d="M368.023 750.626C366.929 751.608 365.582 754.371 367.224 755.474C368.519 756.351 369.474 755.126 369.831 753.988C370.317 752.45 369.752 750.635 368.023 750.626Z" fill="#02546A"/>
<path d="M379.466 746.994C378.771 747.863 377.676 749.913 378.562 750.965C379.231 751.764 380.578 751.677 381.238 750.878C382.203 749.705 381.43 746.89 379.466 746.994Z" fill="#02546A"/>
<g opacity="0.3">
<path d="M84.7488 619.597C81.7688 618.624 75.3046 618.103 74.7312 622.369C74.2534 625.896 78.7365 627.955 81.6297 628.077C83.8887 628.172 87.4683 627.199 87.6768 624.48C87.7811 622.986 86.1737 620.735 84.7488 619.597Z" fill="#02546A"/>
<path d="M103.333 621.621C95.4615 618.937 95.8612 629.258 102.004 627.92C103.976 627.495 105.618 626.643 105.401 624.488C105.262 623.064 104.245 621.63 102.855 621.387" fill="#02546A"/>
<path d="M96.3652 638.312C86.8601 636.635 88.9453 650.041 96.1479 646.722C100.188 644.863 98.9021 640.944 96.3652 638.312Z" fill="#02546A"/>
<path d="M112.969 641.222C110.77 642.882 109.024 645.08 110.814 647.773C112.725 647.521 115.471 646.513 115.87 644.298C116.122 642.899 114.923 640.301 113.351 640.935" fill="#02546A"/>
<path d="M99.6841 607.268C96.7214 604.922 90.1965 607.277 94.9143 610.466C97.9117 612.49 102.543 610.813 99.6841 607.268Z" fill="#02546A"/>
<path d="M78.78 639.589C77.1639 637.486 75.1048 637.304 72.7329 638.659C70.8736 639.719 70.4218 640.666 71.8119 642.369C73.9145 644.932 81.5255 642.404 78.78 639.589Z" fill="#02546A"/>
<path d="M122.778 629.91C121.561 629.823 118.399 629.267 118.199 631.1C118.051 632.438 119.502 632.812 120.432 633.012C121.414 633.22 123.516 633.472 124.116 632.308C124.515 631.535 123.716 629.997 122.743 630.11" fill="#02546A"/>
<path d="M121.162 607.572C119.189 607.181 115.045 607.963 115.175 610.674C115.28 612.82 117.4 612.855 118.955 612.316C121.049 611.578 122.569 609.484 121.162 607.572Z" fill="#02546A"/>
<path d="M134.542 617.164C133.012 617.112 129.859 617.59 129.433 619.423C129.111 620.813 130.31 622.221 131.727 622.29C133.812 622.395 136.271 619.241 134.542 617.164Z" fill="#02546A"/>
</g>
<g opacity="0.3">
<path d="M1521.75 925.279C1518.77 924.306 1512.3 923.784 1511.73 928.05C1511.25 931.578 1515.74 933.637 1518.63 933.758C1520.89 933.854 1524.47 932.881 1524.68 930.162C1524.78 928.667 1523.17 926.417 1521.75 925.279Z" fill="#02546A"/>
<path d="M1540.33 927.303C1532.46 924.618 1532.86 934.94 1539 933.602C1540.98 933.176 1542.62 932.325 1542.4 930.17C1542.26 928.745 1541.25 927.312 1539.86 927.068" fill="#02546A"/>
<path d="M1533.37 943.993C1523.86 942.316 1525.95 955.723 1533.15 952.404C1537.19 950.544 1535.9 946.626 1533.37 943.993Z" fill="#02546A"/>
<path d="M1549.97 946.904C1547.77 948.563 1546.02 950.761 1547.81 953.455C1549.73 953.203 1552.47 952.195 1552.87 949.98C1553.12 948.581 1551.92 945.983 1550.35 946.617" fill="#02546A"/>
<path d="M1536.68 912.95C1533.72 910.604 1527.2 912.959 1531.91 916.147C1534.91 918.172 1539.54 916.495 1536.68 912.95Z" fill="#02546A"/>
<path d="M1515.78 945.27C1514.16 943.168 1512.1 942.985 1509.73 944.341C1507.87 945.401 1507.42 946.348 1508.81 948.051C1510.91 950.614 1518.53 948.085 1515.78 945.27Z" fill="#02546A"/>
<path d="M1559.78 935.592C1558.56 935.505 1555.4 934.949 1555.2 936.782C1555.05 938.12 1556.5 938.494 1557.43 938.693C1558.41 938.902 1560.52 939.154 1561.12 937.99C1561.52 937.216 1560.72 935.679 1559.74 935.791" fill="#02546A"/>
<path d="M1558.16 913.254C1556.19 912.863 1552.05 913.645 1552.18 916.356C1552.28 918.502 1554.4 918.536 1555.95 917.998C1558.05 917.259 1559.57 915.165 1558.16 913.254Z" fill="#02546A"/>
<path d="M1571.54 922.846C1570.01 922.794 1566.86 923.272 1566.43 925.105C1566.11 926.495 1567.31 927.903 1568.73 927.972C1570.81 928.076 1573.27 924.922 1571.54 922.846Z" fill="#02546A"/>
</g>
<g opacity="0.3">
<path d="M800.749 51.2787C797.769 50.3056 791.305 49.7843 790.731 54.0502C790.253 57.5777 794.737 59.6368 797.63 59.7585C799.889 59.854 803.468 58.881 803.677 56.1615C803.781 54.6672 802.174 52.4168 800.749 51.2787Z" fill="#02546A"/>
<path d="M819.333 53.3029C811.462 50.6182 811.861 60.94 818.004 59.602C819.976 59.1762 821.618 58.3248 821.401 56.1701C821.262 54.7452 820.245 53.3117 818.855 53.0684" fill="#02546A"/>
<path d="M812.365 69.9933C802.86 68.3165 804.945 81.7226 812.148 78.4036C816.188 76.5443 814.902 72.6259 812.365 69.9933Z" fill="#02546A"/>
<path d="M828.969 72.9038C826.77 74.5633 825.024 76.7615 826.814 79.4548C828.725 79.2029 831.471 78.195 831.87 75.9795C832.122 74.5807 830.923 71.9829 829.351 72.6171" fill="#02546A"/>
<path d="M815.684 38.9499C812.721 36.6041 806.197 38.9586 810.914 42.1472C813.912 44.1716 818.543 42.4947 815.684 38.9499Z" fill="#02546A"/>
<path d="M794.78 71.2703C793.164 69.1677 791.105 68.9853 788.733 70.3407C786.874 71.4006 786.422 72.3477 787.812 74.0506C789.914 76.6136 797.525 74.0853 794.78 71.2703Z" fill="#02546A"/>
<path d="M838.778 61.5917C837.561 61.5048 834.399 60.9487 834.199 62.7819C834.051 64.12 835.502 64.4935 836.432 64.6933C837.414 64.9019 839.516 65.1538 840.116 63.9896C840.515 63.2163 839.716 61.6785 838.743 61.7915" fill="#02546A"/>
<path d="M837.162 39.2539C835.189 38.863 831.045 39.6449 831.175 42.3557C831.28 44.5017 833.4 44.5365 834.955 43.9978C837.049 43.2593 838.569 41.1654 837.162 39.2539Z" fill="#02546A"/>
<path d="M850.542 48.8459C849.012 48.7938 845.859 49.2717 845.433 51.1049C845.111 52.495 846.31 53.9025 847.727 53.972C849.812 54.0763 852.271 50.9224 850.542 48.8459Z" fill="#02546A"/>
</g>
<path d="M445.071 850.012C449.024 848.613 453.03 847.205 457.235 848.674C461.058 850.012 463.812 851.801 468.147 851.914C472.161 852.019 475.845 851.801 479.755 851.037C482.857 850.429 485.819 849.16 489.017 848.96C492.952 848.708 497.036 849.16 500.581 850.959C504.56 852.983 508.027 854.052 512.631 853.539C517.593 852.992 522.415 850.498 527.08 848.873C529.73 847.952 532.171 847.509 535.021 847.761C538.983 848.117 542.571 850.159 546.472 850.698" stroke="#C48E6A" stroke-width="3" stroke-miterlimit="10"/>
<path d="M444.559 856.936C449.024 855.998 454.481 854.79 459.007 856.519C460.962 857.266 462.535 858.37 464.655 858.717C469.103 859.456 472.891 858.9 477.235 857.961C484.151 856.458 490.25 855.172 497.384 857.032C500.355 857.805 503.057 859.021 505.811 860.229C509.234 861.732 513.405 861.706 517.089 861.411C522.267 860.994 526.498 859.065 531.225 857.162C534.413 855.885 538.01 855.016 541.451 855.728" stroke="#C48E6A" stroke-width="3" stroke-miterlimit="10"/>
<path d="M444.037 864.2C447.208 863.383 450.015 862.445 453.395 862.618C455.48 862.731 457.687 863.774 459.598 864.556C462.187 865.616 464.324 867.041 467.209 867.275C471.675 867.631 475.949 866.989 480.198 865.737C487.14 863.687 493.804 864.113 500.442 866.962C508.096 870.247 515.021 869.056 522.806 866.728C531.225 864.208 540.599 860.55 549.062 864.886" stroke="#C48E6A" stroke-width="3" stroke-miterlimit="10"/>
<path d="M442.995 871.993C445.914 871.272 448.347 869.873 451.501 870.36C454.724 870.855 457.391 872.775 460.371 873.904C464.437 875.442 468.399 875.851 472.735 875.807C476.914 875.764 480.493 874.469 484.516 873.835C493.639 872.401 503.066 876.693 512.206 876.667C515.273 876.659 518.296 876.763 521.337 876.337C524.543 875.885 527.515 874.799 530.668 874.139C533.857 873.479 536.855 872.905 540.104 872.862C541.503 872.844 543.492 872.349 544.735 872.862" stroke="#C48E6A" stroke-width="3" stroke-miterlimit="10"/>
<g opacity="0.3">
<path d="M118.817 851.445C120.215 855.398 121.623 859.403 120.155 863.608C118.817 867.431 117.027 870.185 116.914 874.521C116.81 878.535 117.027 882.219 117.791 886.128C118.4 889.23 119.668 892.193 119.868 895.39C120.12 899.326 119.668 903.409 117.87 906.954C115.845 910.933 114.777 914.4 115.289 919.005C115.836 923.966 118.33 928.788 119.955 933.454C120.876 936.103 121.319 938.545 121.067 941.395C120.711 945.357 118.669 948.945 118.13 952.846" stroke="#C48E6A" stroke-width="3" stroke-miterlimit="10"/>
<path d="M111.901 850.923C112.839 855.389 114.047 860.845 112.318 865.372C111.57 867.327 110.467 868.899 110.119 871.019C109.381 875.468 109.937 879.256 110.875 883.6C112.378 890.516 113.664 896.615 111.805 903.748C111.032 906.72 109.815 909.422 108.608 912.176C107.105 915.599 107.131 919.77 107.426 923.453C107.843 928.632 109.772 932.863 111.675 937.589C112.952 940.778 113.821 944.375 113.108 947.816" stroke="#C48E6A" stroke-width="3" stroke-miterlimit="10"/>
<path d="M104.629 850.402C105.445 853.573 106.384 856.38 106.21 859.759C106.097 861.845 105.054 864.051 104.272 865.963C103.212 868.552 101.787 870.689 101.553 873.574C101.197 878.04 101.84 882.314 103.091 886.563C105.141 893.505 104.715 900.169 101.866 906.807C98.5815 914.461 99.7718 921.386 102.1 929.17C104.62 937.589 108.278 946.964 103.942 955.426" stroke="#C48E6A" stroke-width="3" stroke-miterlimit="10"/>
<path d="M96.8437 849.368C97.5648 852.287 98.9637 854.72 98.4771 857.874C97.9819 861.097 96.0618 863.765 94.9323 866.745C93.3944 870.811 92.9861 874.773 93.0295 879.108C93.073 883.287 94.3675 886.867 95.0018 890.89C96.4354 900.012 92.1433 909.439 92.1694 918.579C92.1781 921.646 92.0738 924.67 92.4995 927.711C92.9513 930.917 94.0374 933.888 94.6977 937.042C95.358 940.231 95.9314 943.228 95.9749 946.477C95.9923 947.876 96.4875 949.866 95.9749 951.108" stroke="#C48E6A" stroke-width="3" stroke-miterlimit="10"/>
</g>
<g opacity="0.3">
<path d="M1549.89 -23.7308C1552.35 -17.5061 1554.83 -11.1993 1552.24 -4.57788C1549.89 1.44162 1546.74 5.77839 1546.54 12.6051C1546.36 18.9255 1546.74 24.7261 1548.09 30.8824C1549.16 35.7664 1551.39 40.4316 1551.74 45.4661C1552.18 51.6634 1551.39 58.0933 1548.22 63.675C1544.66 69.9408 1542.78 75.3993 1543.68 82.6501C1544.65 90.4618 1549.03 98.0546 1551.89 105.401C1553.51 109.574 1554.29 113.418 1553.85 117.905C1553.22 124.144 1549.63 129.794 1548.68 135.936" stroke="#3D3D3D" stroke-width="3" stroke-miterlimit="10"/>
<path d="M1537.72 -24.5512C1539.37 -17.5193 1541.5 -8.92785 1538.46 -1.80022C1537.14 1.27794 1535.2 3.75414 1534.59 7.09223C1533.29 14.0967 1534.27 20.0615 1535.92 26.9018C1538.56 37.7917 1540.83 47.3956 1537.56 58.6274C1536.19 63.3062 1534.05 67.5609 1531.93 71.8977C1529.29 77.2878 1529.33 83.8545 1529.85 89.6552C1530.58 97.8089 1533.98 104.471 1537.33 111.914C1539.57 116.934 1541.1 122.598 1539.85 128.016" stroke="#3D3D3D" stroke-width="3" stroke-miterlimit="10"/>
<path d="M1524.93 -25.3723C1526.37 -20.3789 1528.02 -15.96 1527.71 -10.6382C1527.51 -7.35485 1525.68 -3.87993 1524.3 -0.87018C1522.44 3.20667 1519.93 6.57205 1519.52 11.114C1518.89 18.1459 1520.02 24.8768 1522.22 31.5667C1525.83 42.4976 1525.08 52.9907 1520.07 63.4428C1514.29 75.4954 1516.38 86.3989 1520.48 98.6568C1524.91 111.913 1531.35 126.675 1523.72 140" stroke="#3D3D3D" stroke-width="3" stroke-miterlimit="10"/>
<path d="M1511.23 -27C1512.5 -22.4033 1514.96 -18.5727 1514.11 -13.6066C1513.24 -8.5311 1509.86 -4.3311 1507.87 0.361376C1505.16 6.76394 1504.45 13.0023 1504.52 19.829C1504.6 26.4094 1506.88 32.0458 1507.99 38.38C1510.51 52.7447 1502.96 67.5882 1503.01 81.9803C1503.02 86.8096 1502.84 91.5705 1503.59 96.3587C1504.39 101.407 1506.3 106.086 1507.46 111.052C1508.62 116.073 1509.63 120.792 1509.7 125.909C1509.74 128.112 1510.61 131.245 1509.7 133.201" stroke="#3D3D3D" stroke-width="3" stroke-miterlimit="10"/>
</g>
<g opacity="0.3">
<path d="M315.891 39.2692C318.352 45.4939 320.828 51.8007 318.245 58.4221C315.891 64.4416 312.742 68.7784 312.543 75.6051C312.36 81.9255 312.742 87.7261 314.087 93.8824C315.157 98.7664 317.389 103.432 317.74 108.466C318.184 114.663 317.389 121.093 314.225 126.675C310.663 132.941 308.783 138.399 309.685 145.65C310.648 153.462 315.035 161.055 317.893 168.401C319.513 172.574 320.293 176.418 319.85 180.905C319.223 187.144 315.631 192.794 314.683 198.936" stroke="#3D3D3D" stroke-width="3" stroke-miterlimit="10"/>
<path d="M303.723 38.4488C305.374 45.4807 307.499 54.0721 304.457 61.1998C303.143 64.2779 301.201 66.7541 300.59 70.0922C299.291 77.0967 300.269 83.0615 301.92 89.9018C304.564 100.792 306.826 110.396 303.555 121.627C302.195 126.306 300.055 130.561 297.93 134.898C295.286 140.288 295.332 146.855 295.851 152.655C296.585 160.809 299.978 167.471 303.326 174.914C305.573 179.934 307.102 185.598 305.848 191.016" stroke="#3D3D3D" stroke-width="3" stroke-miterlimit="10"/>
<path d="M290.929 37.6277C292.366 42.6211 294.017 47.04 293.711 52.3618C293.513 55.6452 291.678 59.1201 290.303 62.1298C288.438 66.2067 285.931 69.572 285.518 74.114C284.892 81.1459 286.023 87.8768 288.224 94.5667C291.831 105.498 291.082 115.991 286.069 126.443C280.291 138.495 282.385 149.399 286.481 161.657C290.914 174.913 297.349 189.675 289.722 203" stroke="#3D3D3D" stroke-width="3" stroke-miterlimit="10"/>
<path d="M277.233 36C278.502 40.5967 280.963 44.4273 280.107 49.3934C279.235 54.4689 275.857 58.6689 273.87 63.3614C271.165 69.7639 270.446 76.0023 270.523 82.829C270.599 89.4094 272.877 95.0458 273.993 101.38C276.515 115.745 268.964 130.588 269.009 144.98C269.025 149.81 268.841 154.571 269.59 159.359C270.385 164.407 272.296 169.086 273.458 174.052C274.619 179.073 275.628 183.792 275.705 188.909C275.735 191.112 276.606 194.245 275.705 196.201" stroke="#3D3D3D" stroke-width="3" stroke-miterlimit="10"/>
</g>
<g opacity="0.3">
<path d="M174.206 433.413C171.417 439.498 168.58 445.651 162.013 448.37C156.039 450.837 150.729 451.567 145.665 456.149C140.976 460.391 137.055 464.682 133.542 469.914C130.758 474.067 128.936 478.907 125.546 482.645C121.38 487.255 116.189 491.132 109.971 492.712C102.983 494.479 97.7423 496.9 93.1335 502.57C88.1622 508.672 85.719 517.094 82.3954 524.242C80.5054 528.299 78.2705 531.523 74.7252 534.309C69.789 538.175 63.2247 539.493 58.1354 543.061" stroke="#3D3D3D" stroke-width="3" stroke-miterlimit="10"/>
<path d="M166.377 424.064C162.444 430.123 157.714 437.603 150.465 440.342C147.333 441.524 144.202 441.836 141.37 443.706C135.415 447.616 131.787 452.451 127.993 458.377C121.964 467.824 116.599 476.104 106.228 481.518C101.91 483.775 97.3581 485.175 92.7574 486.643C87.0368 488.466 82.3292 493.044 78.5025 497.435C73.1257 503.608 70.6661 510.669 67.612 518.236C65.5437 523.333 62.514 528.357 57.7365 531.202" stroke="#3D3D3D" stroke-width="3" stroke-miterlimit="10"/>
<path d="M158.113 414.262C155.504 418.756 153.458 423.006 149.405 426.469C146.898 428.598 143.12 429.679 139.996 430.77C135.763 432.246 131.599 432.766 128.035 435.612C122.526 440.027 118.451 445.503 115.147 451.722C109.755 461.892 101.663 468.614 90.6491 472.23C77.951 476.403 71.5312 485.462 65.52 496.903C59.0208 509.278 52.8216 524.14 37.925 527.859" stroke="#3D3D3D" stroke-width="3" stroke-miterlimit="10"/>
<path d="M149.808 403.251C147.368 407.348 146.307 411.776 142.131 414.595C137.864 417.48 132.495 417.949 127.733 419.763C121.239 422.242 116.239 426.041 111.365 430.822C106.669 435.432 104.178 440.977 100.379 446.167C91.757 457.93 75.8174 462.755 65.462 472.75C61.9872 476.104 58.4242 479.267 55.4869 483.122C52.3937 487.19 50.3395 491.807 47.5595 496.083C44.74 500.397 42.0319 504.392 38.3921 507.989C36.8236 509.535 35.1656 512.333 33.1294 513.036" stroke="#3D3D3D" stroke-width="3" stroke-miterlimit="10"/>
</g>
<g opacity="0.3">
<path d="M1564.62 697.358C1561.28 703.157 1557.88 709.019 1551.09 711.114C1544.91 713.015 1539.56 713.247 1534.09 717.337C1529.03 721.125 1524.72 725.032 1520.74 729.914C1517.58 733.79 1515.31 738.439 1511.59 741.846C1507.01 746.048 1501.48 749.424 1495.14 750.418C1488.02 751.527 1482.58 753.45 1477.46 758.666C1471.95 764.278 1468.73 772.436 1464.75 779.244C1462.49 783.108 1459.97 786.109 1456.18 788.553C1450.9 791.943 1444.25 792.644 1438.85 795.723" stroke="#3D3D3D" stroke-width="3" stroke-miterlimit="10"/>
<path d="M1557.7 687.321C1553.22 692.987 1547.81 699.995 1540.34 702.046C1537.11 702.931 1533.96 702.951 1530.97 704.549C1524.68 707.888 1520.62 712.364 1516.29 717.911C1509.4 726.755 1503.29 734.5 1492.46 738.925C1487.95 740.769 1483.29 741.74 1478.57 742.774C1472.71 744.056 1467.59 748.176 1463.37 752.191C1457.45 757.837 1454.34 764.638 1450.59 771.888C1448.06 776.77 1444.58 781.49 1439.55 783.878" stroke="#3D3D3D" stroke-width="3" stroke-miterlimit="10"/>
<path d="M1550.38 676.792C1547.37 681.023 1544.93 685.064 1540.58 688.135C1537.88 690.021 1534.02 690.746 1530.81 691.541C1526.45 692.617 1522.26 692.747 1518.45 695.249C1512.55 699.132 1507.98 704.204 1504.11 710.088C1497.8 719.712 1489.12 725.652 1477.81 728.227C1464.78 731.199 1457.55 739.621 1450.5 750.452C1442.87 762.169 1435.32 776.389 1420.14 778.704" stroke="#3D3D3D" stroke-width="3" stroke-miterlimit="10"/>
<path d="M1543.14 665.055C1540.33 668.907 1538.86 673.217 1534.44 675.636C1529.92 678.11 1524.53 678.077 1519.62 679.44C1512.93 681.304 1507.59 684.621 1502.3 688.927C1497.19 693.08 1494.19 698.369 1489.93 703.182C1480.25 714.092 1463.93 717.411 1452.69 726.399C1448.92 729.415 1445.07 732.232 1441.79 735.797C1438.33 739.559 1435.86 743.965 1432.69 747.964C1429.48 751.996 1426.41 755.722 1422.45 758.964C1420.75 760.358 1418.84 762.989 1416.74 763.5" stroke="#3D3D3D" stroke-width="3" stroke-miterlimit="10"/>
</g>
<path d="M679.839 825.997C678.44 822.044 677.032 818.038 678.501 813.833C679.839 810.01 681.628 807.256 681.741 802.921C681.846 798.907 681.628 795.223 680.864 791.313C680.256 788.211 678.987 785.249 678.787 782.051C678.535 778.116 678.987 774.032 680.786 770.487C682.81 766.508 683.879 763.041 683.366 758.436C682.819 753.475 680.325 748.653 678.7 743.988C677.779 741.338 677.336 738.896 677.588 736.047C677.945 732.085 679.986 728.497 680.525 724.595" stroke="#C48E6A" stroke-width="3" stroke-miterlimit="10"/>
<path d="M686.755 826.51C685.816 822.044 684.609 816.587 686.338 812.061C687.085 810.106 688.188 808.533 688.536 806.413C689.274 801.965 688.718 798.177 687.78 793.833C686.277 786.917 684.991 780.818 686.85 773.685C687.623 770.713 688.84 768.011 690.047 765.257C691.551 761.834 691.524 757.663 691.229 753.979C690.812 748.801 688.883 744.57 686.98 739.844C685.703 736.655 684.834 733.058 685.547 729.617" stroke="#C48E6A" stroke-width="3" stroke-miterlimit="10"/>
<path d="M694.027 827.031C693.21 823.859 692.272 821.053 692.445 817.673C692.558 815.588 693.601 813.381 694.383 811.47C695.443 808.881 696.868 806.744 697.102 803.859C697.459 799.393 696.816 795.119 695.565 790.87C693.514 783.928 693.94 777.264 696.79 770.626C700.074 762.972 698.883 756.047 696.555 748.262C694.035 739.843 690.378 730.469 694.713 722.006" stroke="#C48E6A" stroke-width="3" stroke-miterlimit="10"/>
<path d="M701.811 828.073C701.09 825.154 699.691 822.721 700.178 819.568C700.673 816.344 702.593 813.677 703.723 810.697C705.261 806.631 705.669 802.669 705.626 798.333C705.582 794.154 704.288 790.575 703.653 786.552C702.22 777.429 706.503 768.002 706.486 758.862C706.477 755.795 706.581 752.772 706.156 749.731C705.704 746.525 704.618 743.553 703.957 740.4C703.297 737.211 702.724 734.213 702.68 730.964C702.663 729.565 702.168 727.576 702.68 726.333" stroke="#C48E6A" stroke-width="3" stroke-miterlimit="10"/>
</g>
<defs>
<clipPath id="clip0_1_54">
<rect width="1600" height="1200" fill="white"/>
</clipPath>
</defs>
</svg>
